<svg xmlns="http://www.w3.org/2000/svg" xmlns:xlink="http://www.w3.org/1999/xlink" width="1024" zoomAndPan="magnify" viewBox="0 0 768 767.999994" height="1024" preserveAspectRatio="xMidYMid meet" version="1.0"><defs><clipPath id="b23299d60a"><path d="M 187.707031 173 L 579.957031 173 L 579.957031 595 L 187.707031 595 Z M 187.707031 173 " clip-rule="nonzero"/></clipPath></defs><g clip-path="url(#b23299d60a)"><path fill="#ffffff" d="M 187.707031 589.84375 C 187.707031 592.640625 190.035156 594.972656 192.835938 594.972656 L 575.15625 594.972656 C 577.953125 594.972656 580.285156 592.640625 580.285156 589.84375 C 580.285156 587.046875 577.953125 584.714844 575.15625 584.714844 L 551.84375 584.714844 L 551.84375 344.132812 C 551.84375 341.335938 549.511719 339.003906 546.714844 339.003906 L 526.664062 339.003906 L 526.664062 233.632812 C 526.664062 230.835938 524.335938 228.503906 521.535156 228.503906 L 374.667969 228.503906 L 374.667969 178.152344 C 374.667969 175.351562 372.339844 173.023438 369.539062 173.023438 L 225.003906 173.023438 C 222.207031 173.023438 219.875 175.351562 219.875 178.152344 L 219.410156 584.714844 L 193.300781 584.714844 C 190.035156 584.25 187.707031 587.046875 187.707031 589.84375 Z M 363.945312 584.25 L 229.667969 584.25 L 230.132812 183.277344 L 363.945312 183.277344 Z M 516.40625 338.539062 L 402.179688 338.539062 C 399.378906 338.539062 397.050781 340.871094 397.050781 343.667969 L 396.582031 584.25 L 374.667969 584.25 L 374.667969 239.230469 L 516.40625 239.230469 Z M 541.585938 584.25 L 406.839844 584.25 L 407.304688 349.261719 L 541.117188 349.261719 L 541.117188 584.25 Z M 541.585938 584.25 " fill-opacity="1" fill-rule="nonzero"/></g><path fill="#ffffff" d="M 453 267.203125 L 453 317.089844 C 453 319.890625 455.328125 322.21875 458.128906 322.21875 L 489.367188 322.21875 C 492.164062 322.21875 494.496094 319.890625 494.496094 317.089844 L 494.496094 267.203125 C 494.496094 264.40625 492.164062 262.074219 489.367188 262.074219 L 458.128906 262.074219 C 455.328125 262.074219 453 264.40625 453 267.203125 Z M 463.722656 272.796875 L 484.238281 272.796875 L 484.238281 311.960938 L 463.722656 311.960938 Z M 463.722656 272.796875 " fill-opacity="1" fill-rule="nonzero"/><path fill="#ffffff" d="M 424.558594 386.097656 L 424.558594 435.519531 C 424.558594 438.316406 426.890625 440.644531 429.6875 440.644531 L 459.058594 440.644531 C 461.855469 440.644531 464.1875 438.316406 464.1875 435.519531 L 464.1875 386.097656 C 464.1875 383.296875 461.855469 380.96875 459.058594 380.96875 L 429.6875 380.96875 C 426.890625 380.5 424.558594 382.832031 424.558594 386.097656 Z M 435.28125 391.222656 L 453.929688 391.222656 L 453.929688 430.390625 L 435.28125 430.390625 Z M 435.28125 391.222656 " fill-opacity="1" fill-rule="nonzero"/><path fill="#ffffff" d="M 424.558594 470.019531 L 424.558594 519.441406 C 424.558594 522.238281 426.890625 524.570312 429.6875 524.570312 L 459.058594 524.570312 C 461.855469 524.570312 464.1875 522.238281 464.1875 519.441406 L 464.1875 470.019531 C 464.1875 467.222656 461.855469 464.890625 459.058594 464.890625 L 429.6875 464.890625 C 426.890625 464.425781 424.558594 466.757812 424.558594 470.019531 Z M 435.28125 475.148438 L 453.929688 475.148438 L 453.929688 514.3125 L 435.28125 514.3125 Z M 435.28125 475.148438 " fill-opacity="1" fill-rule="nonzero"/><path fill="#ffffff" d="M 481.90625 386.097656 L 481.90625 435.519531 C 481.90625 438.316406 484.238281 440.644531 487.035156 440.644531 L 516.40625 440.644531 C 519.207031 440.644531 521.535156 438.316406 521.535156 435.519531 L 521.535156 386.097656 C 521.535156 383.296875 519.207031 380.96875 516.40625 380.96875 L 487.035156 380.96875 C 484.238281 380.5 481.90625 382.832031 481.90625 386.097656 Z M 492.628906 391.222656 L 511.277344 391.222656 L 511.277344 430.390625 L 492.628906 430.390625 Z M 492.628906 391.222656 " fill-opacity="1" fill-rule="nonzero"/><path fill="#ffffff" d="M 481.90625 470.019531 L 481.90625 519.441406 C 481.90625 522.238281 484.238281 524.570312 487.035156 524.570312 L 516.40625 524.570312 C 519.207031 524.570312 521.535156 522.238281 521.535156 519.441406 L 521.535156 470.019531 C 521.535156 467.222656 519.207031 464.890625 516.40625 464.890625 L 487.035156 464.890625 C 484.238281 464.425781 481.90625 466.757812 481.90625 470.019531 Z M 492.628906 475.148438 L 511.277344 475.148438 L 511.277344 514.3125 L 492.628906 514.3125 Z M 492.628906 475.148438 " fill-opacity="1" fill-rule="nonzero"/><path fill="#ffffff" d="M 289.8125 435.519531 L 289.8125 386.097656 C 289.8125 383.296875 287.480469 380.96875 284.683594 380.96875 L 255.3125 380.96875 C 252.511719 380.96875 250.183594 383.296875 250.183594 386.097656 L 250.183594 435.519531 C 250.183594 438.316406 252.511719 440.644531 255.3125 440.644531 L 284.683594 440.644531 C 287.480469 441.113281 289.8125 438.78125 289.8125 435.519531 Z M 279.089844 430.390625 L 260.441406 430.390625 L 260.441406 391.222656 L 279.089844 391.222656 Z M 279.089844 430.390625 " fill-opacity="1" fill-rule="nonzero"/><path fill="#ffffff" d="M 289.8125 519.441406 L 289.8125 470.019531 C 289.8125 467.222656 287.480469 464.890625 284.683594 464.890625 L 255.3125 464.890625 C 252.511719 464.890625 250.183594 467.222656 250.183594 470.019531 L 250.183594 519.441406 C 250.183594 522.238281 252.511719 524.570312 255.3125 524.570312 L 284.683594 524.570312 C 287.480469 525.035156 289.8125 522.707031 289.8125 519.441406 Z M 279.089844 514.3125 L 260.441406 514.3125 L 260.441406 475.148438 L 279.089844 475.148438 Z M 279.089844 514.3125 " fill-opacity="1" fill-rule="nonzero"/><path fill="#ffffff" d="M 347.160156 435.519531 L 347.160156 386.097656 C 347.160156 383.296875 344.828125 380.96875 342.03125 380.96875 L 312.660156 380.96875 C 309.863281 380.96875 307.53125 383.296875 307.53125 386.097656 L 307.53125 435.519531 C 307.53125 438.316406 309.863281 440.644531 312.660156 440.644531 L 342.03125 440.644531 C 344.828125 441.113281 347.160156 438.78125 347.160156 435.519531 Z M 336.4375 430.390625 L 317.789062 430.390625 L 317.789062 391.222656 L 336.4375 391.222656 Z M 336.4375 430.390625 " fill-opacity="1" fill-rule="nonzero"/><path fill="#ffffff" d="M 347.160156 519.441406 L 347.160156 470.019531 C 347.160156 467.222656 344.828125 464.890625 342.03125 464.890625 L 312.660156 464.890625 C 309.863281 464.890625 307.53125 467.222656 307.53125 470.019531 L 307.53125 519.441406 C 307.53125 522.238281 309.863281 524.570312 312.660156 524.570312 L 342.03125 524.570312 C 344.828125 525.035156 347.160156 522.707031 347.160156 519.441406 Z M 336.4375 514.3125 L 317.789062 514.3125 L 317.789062 475.148438 L 336.4375 475.148438 Z M 336.4375 514.3125 " fill-opacity="1" fill-rule="nonzero"/><path fill="#ffffff" d="M 289.8125 260.210938 L 289.8125 210.320312 C 289.8125 207.523438 287.480469 205.191406 284.683594 205.191406 L 255.3125 205.191406 C 252.511719 205.191406 250.183594 207.523438 250.183594 210.320312 L 250.183594 260.210938 C 250.183594 263.007812 252.511719 265.339844 255.3125 265.339844 L 284.683594 265.339844 C 287.480469 265.339844 289.8125 263.007812 289.8125 260.210938 Z M 279.089844 254.613281 L 260.441406 254.613281 L 260.441406 215.449219 L 279.089844 215.449219 Z M 279.089844 254.613281 " fill-opacity="1" fill-rule="nonzero"/><path fill="#ffffff" d="M 289.8125 344.132812 L 289.8125 294.246094 C 289.8125 291.449219 287.480469 289.117188 284.683594 289.117188 L 255.3125 289.117188 C 252.511719 289.117188 250.183594 291.449219 250.183594 294.246094 L 250.183594 344.132812 C 250.183594 346.929688 252.511719 349.261719 255.3125 349.261719 L 284.683594 349.261719 C 287.480469 349.261719 289.8125 346.929688 289.8125 344.132812 Z M 279.089844 338.539062 L 260.441406 338.539062 L 260.441406 299.375 L 279.089844 299.375 Z M 279.089844 338.539062 " fill-opacity="1" fill-rule="nonzero"/><path fill="#ffffff" d="M 347.160156 260.210938 L 347.160156 210.320312 C 347.160156 207.523438 344.828125 205.191406 342.03125 205.191406 L 312.660156 205.191406 C 309.863281 205.191406 307.53125 207.523438 307.53125 210.320312 L 307.53125 260.210938 C 307.53125 263.007812 309.863281 265.339844 312.660156 265.339844 L 342.03125 265.339844 C 344.828125 265.339844 347.160156 263.007812 347.160156 260.210938 Z M 336.4375 254.613281 L 317.789062 254.613281 L 317.789062 215.449219 L 336.4375 215.449219 Z M 336.4375 254.613281 " fill-opacity="1" fill-rule="nonzero"/><path fill="#ffffff" d="M 347.160156 344.132812 L 347.160156 294.246094 C 347.160156 291.449219 344.828125 289.117188 342.03125 289.117188 L 312.660156 289.117188 C 309.863281 289.117188 307.53125 291.449219 307.53125 294.246094 L 307.53125 344.132812 C 307.53125 346.929688 309.863281 349.261719 312.660156 349.261719 L 342.03125 349.261719 C 344.828125 349.261719 347.160156 346.929688 347.160156 344.132812 Z M 336.4375 338.539062 L 317.789062 338.539062 L 317.789062 299.375 L 336.4375 299.375 Z M 336.4375 338.539062 " fill-opacity="1" fill-rule="nonzero"/><path fill="#ffffff" d="M 403.109375 322.21875 L 434.347656 322.21875 C 437.144531 322.21875 439.476562 319.890625 439.476562 317.089844 L 439.476562 267.203125 C 439.476562 264.40625 437.144531 262.074219 434.347656 262.074219 L 403.109375 262.074219 C 400.3125 262.074219 397.980469 264.40625 397.980469 267.203125 L 397.980469 317.089844 C 397.980469 319.890625 400.3125 322.21875 403.109375 322.21875 Z M 408.707031 272.796875 L 429.21875 272.796875 L 429.21875 311.960938 L 408.707031 311.960938 Z M 408.707031 272.796875 " fill-opacity="1" fill-rule="nonzero"/></svg>