<svg xmlns="http://www.w3.org/2000/svg" xmlns:xlink="http://www.w3.org/1999/xlink" width="1024" zoomAndPan="magnify" viewBox="0 0 768 767.999994" height="1024" preserveAspectRatio="xMidYMid meet" version="1.0"><defs><clipPath id="4ad5fa6770"><path d="M 215 215.035156 L 552.980469 215.035156 L 552.980469 553 L 215 553 Z M 215 215.035156 " clip-rule="nonzero"/></clipPath></defs><g clip-path="url(#4ad5fa6770)"><path fill="#111111" d="M 551 543.304688 C 553.195312 545.503906 553.195312 549.066406 551 551.265625 C 549.898438 552.363281 548.460938 552.914062 547.019531 552.914062 C 545.582031 552.914062 544.140625 552.363281 543.039062 551.265625 L 383.972656 392.195312 L 224.902344 551.265625 C 223.804688 552.363281 222.363281 552.914062 220.921875 552.914062 C 219.484375 552.914062 218.042969 552.363281 216.945312 551.265625 C 214.746094 549.066406 214.746094 545.503906 216.945312 543.304688 L 376.011719 384.238281 L 216.945312 225.167969 C 214.746094 222.96875 214.746094 219.40625 216.945312 217.210938 C 219.140625 215.011719 222.703125 215.011719 224.902344 217.210938 L 383.972656 376.277344 L 543.039062 217.210938 C 545.238281 215.011719 548.800781 215.011719 551 217.210938 C 553.195312 219.40625 553.195312 222.96875 551 225.167969 L 391.929688 384.238281 Z M 551 543.304688 " fill-opacity="1" fill-rule="nonzero"/></g></svg>