<svg xmlns="http://www.w3.org/2000/svg" xmlns:xlink="http://www.w3.org/1999/xlink" width="1024" zoomAndPan="magnify" viewBox="0 0 768 767.999994" height="1024" preserveAspectRatio="xMidYMid meet" version="1.0"><defs><clipPath id="0d9a4019cc"><path d="M 164.976562 263.335938 L 602.976562 263.335938 L 602.976562 286 L 164.976562 286 Z M 164.976562 263.335938 " clip-rule="nonzero"/></clipPath><clipPath id="31f16d4711"><path d="M 164.976562 373 L 602.976562 373 L 602.976562 395 L 164.976562 395 Z M 164.976562 373 " clip-rule="nonzero"/></clipPath><clipPath id="0b531e367e"><path d="M 164.976562 482 L 602.976562 482 L 602.976562 504.835938 L 164.976562 504.835938 Z M 164.976562 482 " clip-rule="nonzero"/></clipPath></defs><g clip-path="url(#0d9a4019cc)"><path fill="#121212" d="M 593.496094 285.4375 L 174.503906 285.4375 C 169.246094 285.4375 164.976562 279.746094 164.976562 274.488281 C 164.976562 269.230469 169.246094 263.535156 174.503906 263.535156 L 593.496094 263.535156 C 598.75 263.535156 603.023438 269.230469 603.023438 274.488281 C 603.023438 279.746094 598.75 285.4375 593.496094 285.4375 Z M 593.496094 285.4375 " fill-opacity="1" fill-rule="nonzero"/></g><g clip-path="url(#31f16d4711)"><path fill="#121212" d="M 593.496094 394.949219 L 174.503906 394.949219 C 169.246094 394.949219 164.976562 389.257812 164.976562 384 C 164.976562 378.742188 169.246094 373.046875 174.503906 373.046875 L 593.496094 373.046875 C 598.75 373.046875 603.023438 378.742188 603.023438 384 C 603.023438 389.257812 598.75 394.949219 593.496094 394.949219 Z M 593.496094 394.949219 " fill-opacity="1" fill-rule="nonzero"/></g><g clip-path="url(#0b531e367e)"><path fill="#121212" d="M 593.496094 504.460938 L 174.503906 504.460938 C 169.246094 504.460938 164.976562 498.769531 164.976562 493.511719 C 164.976562 488.253906 169.246094 482.558594 174.503906 482.558594 L 593.496094 482.558594 C 598.75 482.558594 603.023438 488.253906 603.023438 493.511719 C 603.023438 498.769531 598.75 504.460938 593.496094 504.460938 Z M 593.496094 504.460938 " fill-opacity="1" fill-rule="nonzero"/></g></svg>