<svg xmlns="http://www.w3.org/2000/svg" xmlns:xlink="http://www.w3.org/1999/xlink" width="1024" zoomAndPan="magnify" viewBox="0 0 768 767.999994" height="1024" preserveAspectRatio="xMidYMid meet" version="1.0"><defs><clipPath id="160dcd1bfc"><path d="M 133 264.105469 L 635 264.105469 L 635 597.105469 L 133 597.105469 Z M 133 264.105469 " clip-rule="nonzero"/></clipPath></defs><g clip-path="url(#160dcd1bfc)"><path fill="#ffffff" d="M 633.699219 410.960938 C 632.414062 409.320312 630.039062 409.03125 628.398438 410.320312 L 597.226562 434.738281 L 505.261719 295.300781 L 532.84375 271.351562 C 534.417969 269.984375 534.585938 267.601562 533.21875 266.023438 C 531.851562 264.449219 529.472656 264.28125 527.894531 265.652344 L 497.8125 291.769531 C 496.382812 293.011719 496.09375 295.117188 497.136719 296.699219 L 508.058594 313.261719 C 496.789062 315.6875 468.855469 320.207031 445.425781 311.828125 C 444.351562 311.394531 418.792969 301.265625 394.546875 309.636719 C 373.15625 317.027344 359.355469 320.742188 349.277344 323.453125 C 343.097656 325.117188 338.253906 326.429688 333.894531 327.988281 C 307.433594 328.421875 274.109375 313.8125 263.03125 308.566406 L 270.859375 296.699219 C 271.898438 295.117188 271.609375 293.011719 270.179688 291.769531 L 240.097656 265.652344 C 238.523438 264.28125 236.136719 264.449219 234.773438 266.023438 C 233.40625 267.601562 233.574219 269.984375 235.148438 271.351562 L 262.734375 295.300781 L 170.769531 434.738281 L 139.59375 410.320312 C 137.953125 409.035156 135.585938 409.316406 134.296875 410.960938 C 133.007812 412.601562 133.296875 414.976562 134.9375 416.261719 L 169.335938 443.207031 C 170.007812 443.734375 170.828125 444.011719 171.667969 444.011719 C 171.867188 444.011719 172.070312 443.996094 172.273438 443.960938 C 173.3125 443.792969 174.238281 443.195312 174.820312 442.316406 L 181.890625 431.59375 C 187.613281 440.550781 200.175781 459.136719 211.59375 468.742188 L 202.910156 480.027344 C 198.6875 485.519531 196.851562 492.324219 197.746094 499.195312 C 198.640625 506.0625 202.160156 512.171875 207.648438 516.398438 C 212.351562 520.015625 217.914062 521.769531 223.433594 521.769531 C 225.246094 521.769531 227.046875 521.558594 228.816406 521.1875 C 225.171875 531.480469 228.316406 543.402344 237.429688 550.414062 C 242.132812 554.03125 247.695312 555.78125 253.21875 555.78125 C 257.253906 555.78125 261.257812 554.828125 264.898438 553.003906 C 264.679688 561.023438 268.136719 569.039062 274.96875 574.296875 C 279.671875 577.917969 285.234375 579.667969 290.753906 579.667969 C 296.515625 579.667969 302.226562 577.75 306.878906 574.066406 C 307.5625 580.472656 310.742188 586.605469 316.238281 590.835938 C 320.667969 594.242188 325.902344 595.890625 331.101562 595.890625 C 338.429688 595.890625 345.679688 592.617188 350.484375 586.375 L 361.542969 572 L 389.480469 589.765625 C 393.382812 592.222656 402.457031 597.15625 412.386719 597.15625 C 414.480469 597.15625 416.613281 596.9375 418.742188 596.429688 C 425.609375 594.792969 431.160156 590.511719 435.238281 583.714844 C 438.320312 578.574219 438.464844 572.734375 437.171875 567.546875 C 441.207031 569.121094 446.019531 570.394531 451.0625 570.394531 C 453.15625 570.394531 455.289062 570.175781 457.417969 569.667969 C 464.285156 568.03125 469.835938 563.753906 473.914062 556.957031 C 477.769531 550.53125 478.5 542.777344 476.214844 535.3125 C 481.660156 538.105469 487.261719 539.59375 492.53125 539.59375 C 494.3125 539.59375 496.058594 539.429688 497.742188 539.085938 C 505.09375 537.601562 511.335938 532.894531 515.785156 525.46875 C 520.53125 517.558594 520.53125 508.644531 515.898438 499.625 C 518.378906 500.214844 520.839844 500.546875 523.226562 500.546875 C 525.007812 500.546875 526.753906 500.378906 528.441406 500.039062 C 535.792969 498.550781 542.03125 493.84375 546.480469 486.417969 C 551.394531 478.226562 551.269531 468.957031 546.125 459.605469 C 545.730469 458.890625 545.234375 458.214844 544.785156 457.519531 C 562.328125 451.777344 578.871094 437.53125 585.753906 431.0625 L 593.175781 442.316406 C 593.757812 443.195312 594.679688 443.792969 595.71875 443.960938 C 595.921875 443.996094 596.125 444.011719 596.328125 444.011719 C 597.167969 444.011719 597.988281 443.730469 598.65625 443.207031 L 633.054688 416.261719 C 634.695312 414.976562 634.984375 412.601562 633.699219 410.960938 Z M 212.253906 510.414062 C 208.363281 507.417969 205.867188 503.085938 205.234375 498.21875 C 204.597656 493.347656 205.898438 488.523438 208.894531 484.632812 L 233.273438 452.949219 C 236.269531 449.058594 240.601562 446.566406 245.46875 445.929688 C 250.324219 445.296875 255.160156 446.59375 259.054688 449.589844 C 262.949219 452.585938 265.441406 456.917969 266.074219 461.785156 C 266.707031 466.652344 265.410156 471.480469 262.414062 475.371094 L 238.035156 507.054688 C 231.851562 515.089844 220.285156 516.59375 212.253906 510.414062 Z M 270.199219 537.972656 L 267.816406 541.070312 C 261.632812 549.105469 250.066406 550.609375 242.035156 544.429688 C 234.003906 538.246094 232.496094 526.679688 238.675781 518.648438 L 277.386719 468.339844 C 283.570312 460.304688 295.140625 458.800781 303.167969 464.980469 C 307.058594 467.976562 309.550781 472.308594 310.1875 477.175781 C 310.820312 482.042969 309.519531 486.871094 306.527344 490.761719 L 301.589844 497.179688 C 301.578125 497.195312 301.5625 497.207031 301.550781 497.222656 L 270.230469 537.925781 C 270.21875 537.941406 270.210938 537.957031 270.199219 537.972656 Z M 311.777344 556.585938 C 311.722656 556.65625 311.683594 556.730469 311.632812 556.796875 L 305.355469 564.953125 C 299.175781 572.988281 287.609375 574.492188 279.574219 568.3125 C 271.546875 562.136719 270.039062 550.589844 276.199219 542.558594 L 307.554688 501.808594 C 313.738281 493.796875 325.285156 492.292969 333.316406 498.46875 C 341.347656 504.652344 342.855469 516.21875 336.675781 524.25 L 328.636719 534.699219 C 328.585938 534.765625 328.527344 534.820312 328.476562 534.886719 Z M 361.199219 560.066406 L 344.5 581.769531 C 341.75 585.339844 337.777344 587.628906 333.308594 588.210938 C 328.84375 588.792969 324.414062 587.601562 320.84375 584.851562 C 313.507812 579.207031 312.113281 568.667969 317.691406 561.300781 L 334.542969 539.402344 C 337.289062 535.886719 341.222656 533.625 345.652344 533.050781 C 346.390625 532.953125 347.128906 532.90625 347.863281 532.90625 C 351.5625 532.90625 355.140625 534.113281 358.117188 536.410156 C 365.488281 542.082031 366.871094 552.695312 361.199219 560.066406 Z M 540.007812 482.535156 C 536.628906 488.171875 532.234375 491.570312 526.945312 492.636719 C 520.355469 493.96875 512.347656 491.628906 504.800781 486.113281 L 431.203125 437.960938 C 429.460938 436.820312 427.117188 437.308594 425.976562 439.054688 C 424.835938 440.796875 425.324219 443.136719 427.070312 444.277344 L 497.210938 490.164062 C 497.3125 490.25 497.375 490.367188 497.492188 490.441406 C 502.40625 493.667969 506.320312 497.765625 508.8125 502.296875 C 512.644531 509.253906 512.8125 515.746094 509.3125 521.585938 C 505.933594 527.21875 501.539062 530.617188 496.25 531.683594 C 489.65625 533.019531 481.652344 530.679688 474.105469 525.164062 L 412.015625 484.535156 C 410.269531 483.398438 407.933594 483.882812 406.789062 485.628906 C 405.648438 487.375 406.136719 489.714844 407.882812 490.855469 L 455.664062 522.113281 C 455.671875 522.121094 455.675781 522.128906 455.679688 522.132812 C 460.191406 525.09375 464.460938 528.152344 467.097656 532.941406 C 468.882812 536.183594 472.492188 544.644531 467.4375 553.070312 C 464.445312 558.0625 460.484375 561.175781 455.667969 562.324219 C 446.222656 564.582031 436.097656 559.082031 432.195312 556.625 L 384.546875 526.328125 C 382.785156 525.207031 380.457031 525.730469 379.335938 527.488281 C 378.21875 529.25 378.738281 531.582031 380.496094 532.703125 L 424.664062 560.785156 C 425.757812 561.480469 426.6875 562.410156 427.375 563.507812 C 429.796875 567.390625 432.144531 574.191406 428.761719 579.832031 C 425.769531 584.820312 421.808594 587.933594 416.992188 589.085938 C 407.550781 591.335938 397.421875 585.84375 393.519531 583.386719 L 366.164062 565.992188 L 367.183594 564.671875 C 375.398438 554 373.394531 538.636719 362.722656 530.425781 C 357.585938 526.46875 351.222656 524.761719 344.785156 525.550781 C 350.871094 514.535156 348.195312 500.394531 337.921875 492.484375 C 331.617188 487.636719 323.773438 486.152344 316.550781 487.730469 C 317.773438 484.0625 318.1875 480.144531 317.675781 476.199219 C 316.78125 469.332031 313.261719 463.222656 307.773438 458.996094 C 297.328125 450.960938 282.660156 452.15625 273.597656 461.265625 C 273.578125 461.113281 273.578125 460.960938 273.558594 460.808594 C 272.667969 453.9375 269.148438 447.828125 263.660156 443.605469 C 258.167969 439.382812 251.367188 437.539062 244.492188 438.441406 C 237.625 439.335938 231.515625 442.855469 227.289062 448.34375 L 216.199219 462.757812 C 204.421875 452.75 190.570312 431.265625 186.453125 424.671875 L 258.828125 314.9375 C 267.757812 319.246094 294.628906 331.378906 320.457031 334.699219 C 320.375 334.753906 320.296875 334.796875 320.210938 334.855469 C 312.011719 340.355469 306.796875 348.566406 300.753906 358.074219 C 296 365.558594 290.613281 374.039062 282.65625 383.070312 C 280.03125 386.046875 280.230469 390.484375 283.105469 393.167969 C 285.21875 395.136719 287.914062 396.984375 291.117188 398.65625 C 307.664062 407.292969 328.605469 405.355469 344.472656 393.714844 C 350.363281 389.394531 356.304688 384.03125 362.121094 377.785156 C 362.234375 377.664062 362.351562 377.515625 362.449219 377.382812 C 362.660156 377.085938 367.6875 370.128906 374.71875 372.40625 C 381.847656 374.71875 394.820312 374.226562 404.4375 373.40625 C 407.269531 373.152344 410.191406 373.90625 412.617188 375.496094 L 528.1875 451.394531 C 533.101562 454.621094 537.019531 458.722656 539.507812 463.246094 C 543.339844 470.207031 543.507812 476.695312 540.007812 482.535156 Z M 539.6875 451.136719 C 537.503906 448.925781 535.058594 446.875 532.332031 445.082031 L 416.761719 369.1875 C 412.929688 366.667969 408.339844 365.496094 403.796875 365.878906 C 391.359375 366.941406 381.609375 366.703125 377.046875 365.226562 C 365.542969 361.5 357.753906 371.046875 356.441406 372.800781 C 350.996094 378.636719 345.464844 383.621094 340.003906 387.628906 C 326.445312 397.578125 308.628906 399.28125 294.609375 391.960938 C 291.589844 390.386719 289.640625 388.894531 288.492188 387.863281 C 296.746094 378.46875 302.257812 369.789062 307.128906 362.125 C 312.941406 352.972656 317.535156 345.742188 324.417969 341.125 C 332.300781 335.839844 338.628906 334.136719 351.238281 330.742188 C 361.425781 328.003906 375.371094 324.25 397.011719 316.777344 C 418.527344 309.335938 442.355469 318.730469 442.738281 318.882812 C 470.640625 328.867188 503.027344 322.308594 512.507812 320.007812 L 581.523438 424.648438 C 575.46875 430.421875 557.398438 446.46875 539.6875 451.136719 Z M 539.6875 451.136719 " fill-opacity="1" fill-rule="nonzero"/></g></svg>