<svg xmlns="http://www.w3.org/2000/svg" xmlns:xlink="http://www.w3.org/1999/xlink" width="1024" zoomAndPan="magnify" viewBox="0 0 768 767.999994" height="1024" preserveAspectRatio="xMidYMid meet" version="1.0"><defs><clipPath id="d4ead35d8d"><path d="M 267 171.214844 L 501 171.214844 L 501 487 L 267 487 Z M 267 171.214844 " clip-rule="nonzero"/></clipPath><clipPath id="38614f58a4"><path d="M 212.441406 242 L 555.191406 242 L 555.191406 596.464844 L 212.441406 596.464844 Z M 212.441406 242 " clip-rule="nonzero"/></clipPath></defs><g clip-path="url(#d4ead35d8d)"><path fill="#ffffff" d="M 383.375 486.484375 C 381.113281 486.285156 378.40625 484.472656 375.265625 481.050781 C 366.019531 471.007812 357.785156 461.230469 350.558594 451.714844 C 332.667969 428.160156 315.828125 403.359375 300.046875 377.308594 C 292.914062 365.535156 286.65625 353.917969 281.277344 342.445312 C 274.714844 328.453125 270.496094 315.988281 268.632812 305.054688 C 265.027344 283.902344 267.566406 263 276.25 242.347656 C 286.898438 217.019531 304.398438 197.839844 328.746094 184.796875 C 356.875 169.75 391.480469 167.425781 421.128906 177.316406 C 460.710938 190.503906 492.273438 226.699219 499.269531 268.101562 C 502.820312 289.125 500.285156 309.902344 491.675781 330.429688 C 483.734375 349.363281 474.445312 367.257812 463.804688 384.121094 C 445.539062 413.089844 425.640625 441.597656 404.058594 467.621094 C 399.058594 473.652344 394.363281 478.914062 389.976562 483.40625 C 388.679688 484.726562 386.957031 485.703125 384.800781 486.339844 C 384.332031 486.46875 383.851562 486.519531 383.375 486.484375 Z M 383.171875 470.621094 C 383.261719 470.722656 383.371094 470.804688 383.5 470.863281 C 383.625 470.921875 383.753906 470.953125 383.894531 470.960938 C 384.03125 470.96875 384.167969 470.949219 384.296875 470.902344 C 384.429688 470.855469 384.546875 470.785156 384.648438 470.691406 C 384.667969 470.671875 384.6875 470.652344 384.703125 470.632812 C 389.015625 466.070312 393.320312 461.105469 397.621094 455.746094 C 409.84375 440.507812 423.109375 422.253906 437.414062 400.984375 C 454.652344 375.355469 468.925781 352.332031 479.789062 325.441406 C 492.566406 293.839844 490.289062 263.796875 472.960938 235.308594 C 450.589844 198.554688 411.746094 180.015625 368.835938 185.394531 C 320.386719 191.480469 283.433594 232.8125 280.441406 281.257812 C 279.273438 300.460938 283.265625 315.699219 291.171875 332.882812 C 308.570312 370.695312 332 404.324219 357.140625 438.824219 C 365.324219 450.035156 373.996094 460.632812 383.171875 470.621094 Z M 383.171875 470.621094 " fill-opacity="1" fill-rule="nonzero"/></g><g clip-path="url(#38614f58a4)"><path fill="#ffffff" d="M 337.320312 287.105469 C 338.035156 261.484375 359.621094 241.300781 385.527344 242.023438 C 411.433594 242.746094 431.855469 264.105469 431.140625 289.726562 C 430.425781 315.347656 408.84375 335.53125 382.933594 334.808594 C 357.027344 334.082031 336.605469 312.726562 337.320312 287.105469 Z M 418.417969 288.375 C 418.417969 269.488281 403.105469 254.175781 384.214844 254.175781 C 365.328125 254.175781 350.015625 269.488281 350.015625 288.375 C 350.015625 307.265625 365.328125 322.578125 384.214844 322.578125 C 403.101562 322.574219 418.417969 307.261719 418.417969 288.375 Z M 447.945312 450.613281 L 447.972656 450.410156 C 448.488281 447.234375 451.425781 445.042969 454.613281 445.453125 C 462.429688 446.457031 474.097656 449.503906 489.628906 454.59375 C 507.664062 460.515625 525.730469 469.34375 539.257812 482.382812 C 557.429688 499.917969 561.652344 524.949219 545.507812 545.527344 C 534.53125 559.488281 518.003906 569.367188 501.226562 576.035156 C 486.457031 581.890625 471.546875 586.328125 456.488281 589.34375 C 425.820312 595.484375 394.269531 597.757812 361.832031 596.164062 C 331.046875 594.660156 301.511719 588.707031 273.222656 578.304688 C 251.371094 570.261719 222.429688 555.539062 214.699219 531.390625 C 210.269531 517.582031 212.324219 504.65625 220.851562 492.613281 C 227.082031 483.8125 235.0625 476.398438 244.796875 470.367188 C 264.574219 458.117188 287.21875 450.171875 312.734375 446.53125 C 315.988281 446.0625 319.058594 448.175781 319.800781 451.390625 L 319.867188 451.664062 C 320.542969 454.605469 318.699219 457.535156 315.753906 458.207031 C 315.636719 458.238281 315.515625 458.261719 315.398438 458.277344 C 297.035156 461.238281 279.648438 466.644531 263.242188 474.492188 C 247.148438 482.207031 229.9375 494.527344 225.445312 512.332031 C 221.601562 527.515625 233.132812 541.882812 245.371094 550.171875 C 256.136719 557.453125 268.765625 563.609375 283.265625 568.644531 C 338.125 587.703125 398.945312 588.097656 456.546875 576.847656 C 481.496094 571.984375 507.003906 562.652344 526.03125 548.148438 C 539.179688 538.152344 548.578125 521.894531 540.890625 505.539062 C 534.617188 492.1875 523.257812 483.375 510.003906 476.71875 C 492.265625 467.808594 473.214844 461.433594 452.851562 457.59375 C 449.589844 456.980469 447.414062 453.886719 447.945312 450.613281 Z M 447.945312 450.613281 " fill-opacity="1" fill-rule="nonzero"/></g><path fill="#ffffff" d="M 384.1875 557.480469 C 359.441406 557.507812 334.722656 554.207031 311.957031 544.386719 C 302.96875 540.5 292.875 533.277344 289.34375 524.21875 C 283.828125 510.089844 294.125 498.871094 306.035156 492.542969 C 314.800781 487.878906 325.191406 484.628906 337.207031 482.792969 C 340.535156 482.285156 343.660156 484.527344 344.242188 487.84375 L 344.242188 487.882812 C 344.789062 491.027344 342.707031 494.023438 339.570312 494.605469 C 327.019531 496.929688 315.082031 500.160156 305.628906 507.660156 C 298.78125 513.089844 298.410156 518.824219 304.511719 524.851562 C 307.636719 527.921875 311.152344 530.367188 315.066406 532.1875 C 336.269531 542.050781 360.09375 545.039062 384.175781 545.007812 C 408.242188 544.980469 432.050781 541.9375 453.238281 532.039062 C 457.140625 530.207031 460.652344 527.753906 463.777344 524.675781 C 469.863281 518.628906 469.476562 512.894531 462.625 507.484375 C 453.15625 500.011719 441.207031 496.808594 428.65625 494.511719 C 425.515625 493.933594 423.425781 490.933594 423.96875 487.789062 L 423.96875 487.75 C 424.542969 484.429688 427.664062 482.183594 430.992188 482.679688 C 443.007812 484.492188 453.402344 487.71875 462.175781 492.363281 C 474.101562 498.667969 484.421875 509.871094 478.949219 523.996094 C 475.433594 533.070312 465.355469 540.324219 456.378906 544.222656 C 433.628906 554.097656 408.9375 557.449219 384.1875 557.480469 Z M 384.1875 557.480469 " fill-opacity="1" fill-rule="nonzero"/></svg>