<svg xmlns="http://www.w3.org/2000/svg" xmlns:xlink="http://www.w3.org/1999/xlink" width="1024" zoomAndPan="magnify" viewBox="0 0 768 767.999994" height="1024" preserveAspectRatio="xMidYMid meet" version="1.0"><defs><clipPath id="66138d6ea1"><path d="M 155.25 257.089844 L 612.75 257.089844 L 612.75 596.839844 L 155.25 596.839844 Z M 155.25 257.089844 " clip-rule="nonzero"/></clipPath></defs><g clip-path="url(#66138d6ea1)"><path fill="#ffffff" d="M 611.59375 257.5 C 611.191406 257.242188 610.730469 257.117188 610.265625 257.117188 C 609.835938 257.117188 609.402344 257.226562 609.015625 257.453125 L 485.421875 329.335938 C 484.671875 329.773438 484.203125 330.574219 484.1875 331.441406 C 484.171875 332.3125 484.613281 333.125 485.347656 333.589844 L 517.558594 353.855469 L 468.160156 431.8125 L 411.777344 325.519531 C 411.363281 324.734375 410.554688 324.230469 409.667969 324.203125 C 409.636719 324.203125 409.609375 324.203125 409.582031 324.203125 C 408.726562 324.203125 407.925781 324.644531 407.472656 325.371094 L 383.484375 363.855469 L 293.984375 507.445312 L 257.394531 464.117188 L 239.566406 443.011719 C 239.09375 442.449219 238.398438 442.128906 237.667969 442.128906 C 237.597656 442.128906 237.523438 442.132812 237.453125 442.136719 C 236.648438 442.210938 235.925781 442.667969 235.519531 443.367188 L 221.320312 467.8125 L 155.585938 580.96875 C 154.929688 582.09375 155.257812 583.535156 156.335938 584.269531 L 174.023438 596.328125 C 174.453125 596.621094 174.9375 596.761719 175.421875 596.761719 C 176.164062 596.761719 176.894531 596.429688 177.382812 595.804688 L 239.652344 515.976562 L 278.125 562.730469 L 294.675781 582.847656 C 295.148438 583.421875 295.855469 583.753906 296.59375 583.753906 C 296.628906 583.753906 296.660156 583.753906 296.691406 583.75 C 297.46875 583.71875 298.1875 583.328125 298.632812 582.691406 L 314.757812 559.597656 L 402.640625 433.746094 L 460.003906 541.886719 C 460.417969 542.671875 461.21875 543.171875 462.101562 543.207031 C 462.132812 543.207031 462.167969 543.210938 462.199219 543.210938 C 463.046875 543.210938 463.839844 542.773438 464.296875 542.054688 L 564.738281 383.542969 L 596.945312 403.808594 C 597.347656 404.0625 597.808594 404.191406 598.269531 404.191406 C 598.648438 404.191406 599.027344 404.101562 599.378906 403.925781 C 600.15625 403.539062 600.671875 402.777344 600.746094 401.914062 L 612.742188 259.808594 C 612.820312 258.886719 612.378906 257.992188 611.59375 257.5 Z M 559.546875 368.519531 L 462.960938 520.945312 L 405.996094 413.554688 C 405.589844 412.789062 404.816406 412.289062 403.949219 412.238281 C 403.898438 412.234375 403.847656 412.230469 403.796875 412.230469 C 402.988281 412.230469 402.226562 412.625 401.757812 413.292969 L 304.566406 552.480469 L 295.941406 564.832031 L 241.359375 498.5 C 240.886719 497.925781 240.183594 497.59375 239.441406 497.59375 C 239.429688 497.59375 239.421875 497.59375 239.410156 497.59375 C 238.65625 497.601562 237.945312 497.953125 237.480469 498.550781 L 173.316406 580.808594 L 170.972656 579.210938 L 232.0625 474.054688 L 239.175781 461.808594 L 247.902344 472.136719 L 293.296875 525.898438 C 293.769531 526.460938 294.46875 526.777344 295.195312 526.777344 C 295.257812 526.777344 295.316406 526.777344 295.375 526.773438 C 296.167969 526.714844 296.886719 526.28125 297.304688 525.605469 L 394.027344 370.425781 L 408.882812 346.59375 L 465.195312 452.757812 C 465.609375 453.539062 466.410156 454.039062 467.292969 454.074219 C 467.324219 454.074219 467.359375 454.078125 467.390625 454.078125 C 468.238281 454.078125 469.03125 453.644531 469.488281 452.921875 L 533.386719 352.082031 C 533.738281 351.523438 533.855469 350.847656 533.710938 350.203125 C 533.566406 349.558594 533.167969 349 532.609375 348.648438 L 505.867188 331.820312 L 598.746094 277.796875 L 589.730469 384.589844 L 562.960938 367.746094 C 562.550781 367.488281 562.09375 367.363281 561.640625 367.363281 C 560.820312 367.363281 560.011719 367.773438 559.539062 368.519531 Z M 559.546875 368.519531 " fill-opacity="1" fill-rule="nonzero"/></g></svg>