<svg xmlns="http://www.w3.org/2000/svg" xmlns:xlink="http://www.w3.org/1999/xlink" width="1024" zoomAndPan="magnify" viewBox="0 0 768 767.999994" height="1024" preserveAspectRatio="xMidYMid meet" version="1.0"><defs><clipPath id="fcc73e4f0f"><path d="M 200.121094 221 L 548 221 L 548 577 L 200.121094 577 Z M 200.121094 221 " clip-rule="nonzero"/></clipPath><clipPath id="614d7cde22"><path d="M 368 134 L 639.621094 134 L 639.621094 408 L 368 408 Z M 368 134 " clip-rule="nonzero"/></clipPath></defs><g clip-path="url(#fcc73e4f0f)"><path fill="#000000" d="M 373.832031 576.71875 C 469.609375 576.71875 547.527344 496.953125 547.527344 398.898438 C 547.527344 365.546875 538.445312 333.042969 521.269531 304.890625 C 519.890625 302.640625 516.949219 301.929688 514.699219 303.296875 C 512.445312 304.675781 511.738281 307.613281 513.109375 309.871094 C 529.371094 336.523438 537.96875 367.304688 537.96875 398.898438 C 537.96875 491.675781 464.332031 567.160156 373.824219 567.160156 C 283.316406 567.160156 209.675781 491.675781 209.675781 398.898438 C 209.675781 306.117188 283.316406 230.632812 373.832031 230.632812 C 410.128906 230.632812 444.53125 242.550781 473.324219 265.085938 C 475.402344 266.710938 478.402344 266.347656 480.03125 264.269531 C 481.65625 262.191406 481.292969 259.1875 479.214844 257.558594 C 448.726562 233.6875 412.285156 221.074219 373.832031 221.074219 C 278.046875 221.074219 200.121094 300.847656 200.121094 398.898438 C 200.121094 496.949219 278.046875 576.71875 373.832031 576.71875 Z M 373.832031 576.71875 " fill-opacity="1" fill-rule="nonzero"/></g><path fill="#000000" d="M 432.699219 308.625 C 433.90625 306.277344 432.992188 303.394531 430.640625 302.183594 C 414.328125 293.773438 395.90625 289.328125 377.355469 289.328125 C 314.140625 289.328125 262.707031 339.707031 262.707031 401.625 C 262.707031 463.550781 314.140625 513.929688 377.355469 513.929688 C 440.574219 513.929688 492.003906 463.550781 492.003906 401.625 C 492.003906 382.3125 486.910156 363.265625 477.273438 346.546875 C 475.957031 344.257812 473.03125 343.472656 470.75 344.792969 C 468.460938 346.113281 467.679688 349.03125 468.996094 351.324219 C 477.796875 366.589844 482.449219 383.984375 482.449219 401.625 C 482.449219 458.277344 435.304688 504.371094 377.355469 504.371094 C 319.410156 504.371094 272.261719 458.277344 272.261719 401.625 C 272.261719 344.976562 319.410156 298.886719 377.355469 298.886719 C 394.386719 298.886719 411.296875 302.964844 426.265625 310.679688 C 428.621094 311.902344 431.492188 310.96875 432.699219 308.625 Z M 432.699219 308.625 " fill-opacity="1" fill-rule="nonzero"/><path fill="#000000" d="M 375.984375 360.414062 C 380.832031 360.414062 385.589844 361.226562 390.117188 362.835938 C 392.613281 363.722656 395.332031 362.417969 396.214844 359.929688 C 397.101562 357.441406 395.800781 354.710938 393.3125 353.828125 C 387.753906 351.851562 381.921875 350.855469 375.984375 350.855469 C 347.964844 350.855469 325.175781 373.203125 325.175781 400.679688 C 325.175781 428.164062 347.964844 450.519531 375.984375 450.519531 C 404.007812 450.519531 426.804688 428.164062 426.804688 400.679688 C 426.804688 394.3125 425.589844 388.105469 423.1875 382.21875 C 422.195312 379.773438 419.40625 378.59375 416.964844 379.601562 C 414.515625 380.59375 413.347656 383.386719 414.34375 385.828125 C 416.277344 390.5625 417.25 395.5625 417.25 400.679688 C 417.25 422.886719 398.738281 440.960938 375.984375 440.960938 C 353.234375 440.960938 334.730469 422.890625 334.730469 400.679688 C 334.730469 378.476562 353.234375 360.414062 375.984375 360.414062 Z M 375.984375 360.414062 " fill-opacity="1" fill-rule="nonzero"/><g clip-path="url(#614d7cde22)"><path fill="#000000" d="M 369.878906 398.941406 C 368.011719 400.808594 368.011719 403.835938 369.878906 405.703125 C 370.8125 406.636719 372.039062 407.105469 373.261719 407.105469 C 374.484375 407.105469 375.707031 406.636719 376.640625 405.707031 L 506.28125 276.085938 L 569.824219 271.683594 C 570.925781 271.609375 571.972656 271.148438 572.777344 270.386719 L 638.128906 208.617188 C 639.589844 207.234375 640.027344 205.085938 639.230469 203.238281 C 638.433594 201.394531 636.542969 200.234375 634.554688 200.367188 L 573.324219 204.101562 C 573.113281 203.722656 572.925781 203.332031 572.605469 203.011719 C 572.527344 202.933594 572.425781 202.910156 572.347656 202.839844 L 575.664062 139.125 C 575.765625 137.148438 574.644531 135.3125 572.835938 134.507812 C 571.023438 133.707031 568.910156 134.101562 567.515625 135.5 L 501.761719 201.414062 C 500.902344 202.277344 500.402344 203.4375 500.367188 204.660156 L 498.527344 270.3125 Z M 567.453125 262.261719 L 516.578125 265.785156 L 568.390625 213.980469 L 621.996094 210.710938 Z M 509.863281 206.824219 L 565.472656 151.082031 L 562.59375 206.257812 L 508.363281 260.480469 Z M 509.863281 206.824219 " fill-opacity="1" fill-rule="nonzero"/></g></svg>