<svg xmlns="http://www.w3.org/2000/svg" xmlns:xlink="http://www.w3.org/1999/xlink" width="1024" zoomAndPan="magnify" viewBox="0 0 768 767.999994" height="1024" preserveAspectRatio="xMidYMid meet" version="1.0"><defs><clipPath id="49a7e0da53"><path d="M 191 210.207031 L 577.628906 210.207031 L 577.628906 557.457031 L 191 557.457031 Z M 191 210.207031 " clip-rule="nonzero"/></clipPath></defs><g clip-path="url(#49a7e0da53)"><path fill="#000000" d="M 208.5625 220.921875 C 209.59375 217.328125 211.960938 214.351562 215.238281 212.542969 C 218.515625 210.722656 222.308594 210.296875 225.894531 211.332031 L 253.820312 219.332031 C 255.621094 219.847656 256.660156 221.714844 256.144531 223.511719 L 254.625 228.789062 L 385.324219 266.226562 C 387.125 266.742188 388.164062 268.609375 387.644531 270.40625 L 387.027344 272.5625 L 532.683594 314.285156 C 534.484375 314.800781 535.523438 316.667969 535.007812 318.464844 L 534.117188 321.566406 L 569.910156 331.8125 C 572.515625 332.558594 574.679688 334.277344 575.992188 336.648438 C 577.308594 339.019531 577.625 341.761719 576.871094 344.363281 L 569.503906 369.996094 C 568.757812 372.605469 567.039062 374.765625 564.664062 376.074219 C 563.132812 376.917969 561.449219 377.347656 559.753906 377.347656 C 558.8125 377.347656 557.863281 377.214844 556.933594 376.953125 L 521.148438 366.703125 L 520.257812 369.800781 C 520.007812 370.664062 519.429688 371.390625 518.640625 371.828125 C 518.136719 372.105469 517.570312 372.25 517 372.25 C 516.6875 372.25 516.375 372.203125 516.070312 372.117188 L 394.992188 337.4375 C 393.960938 343.46875 390.539062 348.6875 385.679688 352.035156 L 469.621094 550.609375 L 483.613281 550.609375 C 485.488281 550.609375 487.003906 552.125 487.003906 553.992188 C 487.003906 555.863281 485.488281 557.375 483.613281 557.375 L 449.929688 557.375 C 448.058594 557.375 446.542969 555.863281 446.542969 553.992188 C 446.542969 552.125 448.058594 550.609375 449.929688 550.609375 L 462.269531 550.609375 L 379.546875 354.90625 C 378.328125 355.28125 377.078125 355.550781 375.785156 355.710938 L 375.785156 550.609375 L 384.167969 550.609375 C 386.042969 550.609375 387.554688 552.125 387.554688 553.992188 C 387.554688 555.863281 386.042969 557.375 384.167969 557.375 L 360.453125 557.375 C 358.582031 557.375 357.066406 555.863281 357.066406 553.992188 C 357.066406 552.125 358.582031 550.609375 360.453125 550.609375 L 369.007812 550.609375 L 369.007812 355.582031 C 367.953125 355.390625 366.953125 355.070312 365.957031 354.734375 L 283.160156 550.609375 L 294.667969 550.609375 C 296.539062 550.609375 298.054688 552.125 298.054688 553.992188 C 298.054688 555.863281 296.539062 557.375 294.667969 557.375 L 263.449219 557.375 C 261.578125 557.375 260.0625 555.863281 260.0625 553.992188 C 260.0625 552.125 261.578125 550.609375 263.449219 550.609375 L 275.808594 550.609375 L 359.910156 351.648438 C 354.347656 347.585938 350.691406 341.074219 350.691406 333.683594 C 350.691406 332.65625 350.859375 331.671875 350.992188 330.679688 L 234.902344 297.429688 L 233.386719 302.707031 C 233.140625 303.570312 232.5625 304.296875 231.773438 304.734375 C 231.265625 305.011719 230.703125 305.15625 230.132812 305.15625 C 229.816406 305.15625 229.503906 305.109375 229.199219 305.023438 L 201.269531 297.027344 C 197.671875 295.996094 194.691406 293.628906 192.878906 290.363281 C 191.0625 287.09375 190.632812 283.3125 191.664062 279.71875 Z M 357.464844 333.683594 C 357.464844 342.25 364.449219 349.226562 373.03125 349.226562 C 381.617188 349.226562 388.597656 342.25 388.597656 333.683594 C 388.597656 325.117188 381.617188 318.140625 373.03125 318.140625 C 364.449219 318.140625 357.464844 325.117188 357.464844 333.683594 Z M 523.015625 360.203125 L 558.804688 370.453125 C 559.660156 370.699219 560.582031 370.597656 561.382812 370.164062 C 562.171875 369.71875 562.742188 369 562.996094 368.136719 L 570.363281 342.5 C 570.609375 341.628906 570.507812 340.71875 570.066406 339.925781 C 569.628906 339.140625 568.90625 338.5625 568.039062 338.3125 L 532.25 328.0625 Z M 515.570312 361.589844 L 521.121094 342.269531 L 527.5625 319.851562 L 385.160156 279.058594 L 375.796875 311.65625 C 385.714844 312.898438 393.578125 320.582031 395.042969 330.414062 L 514.679688 364.6875 Z M 352.894531 324.191406 C 355.882812 317.902344 361.675781 313.199219 368.699219 311.816406 L 380.199219 271.792969 L 252.761719 235.289062 L 236.773438 290.929688 Z M 198.804688 287.085938 C 199.738281 288.769531 201.277344 289.992188 203.136719 290.527344 L 227.808594 297.59375 L 229.324219 292.320312 C 229.324219 292.316406 233.160156 278.980469 233.160156 278.980469 L 248.695312 224.898438 L 224.027344 217.832031 C 222.167969 217.296875 220.210938 217.515625 218.523438 218.460938 C 216.832031 219.390625 215.605469 220.929688 215.070312 222.785156 L 198.175781 281.582031 C 197.640625 283.4375 197.867188 285.394531 198.804688 287.085938 Z M 198.804688 287.085938 " fill-opacity="1" fill-rule="nonzero"/></g></svg>